<svg width="144" height="24" viewBox="0 0 144 24" fill="none" xmlns="http://www.w3.org/2000/svg">
<g clip-path="url(#clip0_90_174)">
<path d="M66.0258 12.4906C66.0749 15.6122 67.8198 17.4207 70.1546 17.4207C71.9732 17.4207 73.2511 16.4049 73.8655 14.5964L75.2664 14.9928C74.6765 17.6436 72.6367 19.4026 69.6876 19.4026C65.8538 19.4026 63.4453 16.4049 63.4453 12.7136C63.4453 9.04699 65.7063 6.04932 69.4664 6.04932C73.7672 6.04932 75.3647 9.26996 75.1681 12.4906H66.0258ZM69.4664 7.36235C67.5741 7.36235 66.3944 9.04699 66.0995 11.2519H72.5384C72.4156 9.14609 71.3342 7.36235 69.4664 7.36235Z" fill="#14535A"></path>
<path d="M55.8047 19.1549V18.9567L56.6648 17.7923V8.25422L55.8047 6.99074V6.79254L59.1962 6.17319V8.92312C59.8352 7.16415 61.0885 6.04932 62.7351 6.04932C63.0546 6.04932 63.3495 6.07409 63.5953 6.14841L63.4232 8.65061C60.8919 7.88261 59.614 9.76545 59.1962 11.4005V17.7675L60.3512 18.9567V19.1549H55.8047Z" fill="#14535A"></path>
<path d="M47.2894 19.4026C44.8564 19.4026 43.2344 17.9905 43.2344 15.9342C43.2344 13.7789 44.8564 12.4906 47.7072 11.9208L51.3445 11.2023V10.1618C51.3445 8.35332 50.2631 7.36235 48.764 7.36235C47.142 7.36235 45.9623 8.45241 45.9623 10.5334L43.4801 9.96364C43.7996 7.78351 45.7411 6.04932 48.7886 6.04932C51.8851 6.04932 53.8758 7.73396 53.8758 10.7069V17.6932L54.7359 18.9567V19.1549H51.3445V16.95C50.558 18.486 49.1326 19.4026 47.2894 19.4026ZM51.3445 15.0176V12.4163L48.5674 12.9861C46.7733 13.432 45.864 14.2991 45.864 15.6865C45.864 16.8756 46.7242 17.718 48.0758 17.718C49.7962 17.718 50.9267 16.504 51.3445 15.0176Z" fill="#14535A"></path>
<path d="M35.2458 19.4026C30.6255 19.4026 26.3984 16.3058 26.3984 10.2114C26.3984 4.06737 30.8221 1.04492 35.3195 1.04492C38.7847 1.04492 41.2914 2.63047 42.3482 5.03356L40.4558 6.9164L40.2592 6.89162C39.7677 4.56285 37.9 2.6057 35.2949 2.6057C31.8297 2.6057 29.2001 5.2813 29.2001 10.0627C29.2001 14.7946 32.1492 17.3216 35.4424 17.3216C38.2441 17.3216 40.2592 15.8847 41.0457 12.9861L42.6431 13.2338C41.955 17.1977 39.0058 19.4026 35.2458 19.4026Z" fill="#14535A"></path>
<path d="M133.396 19.4022V6.28467H139.082C141.662 6.28467 143.287 7.81293 143.287 10.2691C143.287 11.6882 142.493 12.8889 141.338 13.5621C142.222 14.0169 142.583 14.7083 142.89 15.7817L143.576 18.2196L143.864 19.3294V19.4022H141.013L140.309 16.2911C140.002 14.8538 139.1 14.2171 137.313 14.2171H135.995V19.4022H133.396ZM135.995 11.9247H138.667C139.894 11.9247 140.634 11.3061 140.634 10.2691C140.634 9.21383 139.894 8.57706 138.667 8.57706H135.995V11.9247Z" fill="#00AD99"></path>
<path d="M123.09 19.4022V6.28467H132.024V8.57706H125.689V11.3789H130.778V13.6712H125.689V17.1098H132.024V19.4022H123.09Z" fill="#00AD99"></path>
<path d="M118.538 19.4022L113.124 10.36L113.196 18.2378L113.214 19.3294V19.4022H110.615V6.28467H113.521L118.935 15.3269L118.881 7.44906L118.863 6.35744V6.28467H121.462V19.4022H118.538Z" fill="#00AD99"></path>
<path d="M94.9293 19.4022L91.5182 7.44906L91.1934 6.35744V6.28467H93.9908L94.0269 6.35744L94.2796 7.44906L95.7956 13.5439C96.1746 15.1267 96.3731 16.3821 96.3731 16.3821C96.3731 16.3821 96.5897 15.1267 96.9687 13.5439L98.4126 7.70376L98.4848 7.44906L98.7374 6.35744L98.7555 6.28467H101.968L101.986 6.35744L102.239 7.44906L103.755 13.5621C104.116 15.1449 104.332 16.3821 104.332 16.3821C104.332 16.3821 104.549 15.1449 104.91 13.5621L106.715 6.28467H109.512V6.35744L109.205 7.44906L105.812 19.4022H102.87L101.03 12.5251C100.614 10.9422 100.398 9.70506 100.398 9.70506C100.398 9.70506 100.127 10.9422 99.7301 12.5251L97.835 19.4022H94.9293Z" fill="#00AD99"></path>
<path d="M84.9127 19.5844C81.0865 19.5844 78.2891 16.7281 78.2891 12.8346C78.2891 8.94122 81.0865 6.10303 84.9127 6.10303C88.7028 6.10303 91.5182 8.92303 91.5182 12.8346C91.5182 16.7463 88.7028 19.5844 84.9127 19.5844ZM84.8946 17.2921C87.1867 17.2921 88.8291 15.3999 88.8291 12.8346C88.8291 10.2693 87.1867 8.39541 84.8946 8.39541C82.5845 8.39541 80.9421 10.2693 80.9421 12.8346C80.9421 15.3999 82.5845 17.2921 84.8946 17.2921Z" fill="#00AD99"></path>
<path d="M17.1601 4.95819L17.1148 14.4851L11.0941 15.9815L14.6905 20.1687L20.3474 18.6264L21.8809 16.2647V2.23948L18.593 -0.483887L7.44141 2.33454L11.0087 6.49578L17.1601 4.95819Z" fill="#00AD99"></path>
<path d="M4.75342 17.6374V8.18403L9.24937 7.05948L5.61185 2.83057L1.46604 3.86376L0 5.84395V20.4769L3.28788 23.2003L12.9311 20.7325L9.29361 16.5036L4.75342 17.6374Z" fill="#14535A"></path>
</g>
<defs>
<clipPath id="clip0_90_174">
<rect width="144" height="24" fill="white"></rect>
</clipPath>
</defs>
</svg>